HIERARCHY
ROOT Hips
{
	OFFSET 0.000000 0.000000 0.000000
	CHANNELS 6 Xposition Yposition Zposition Zrotation Yrotation Xrotation 
	JOINT LHipJoint
	{
		OFFSET 0.000000 0.000000 0.000000
		CHANNELS 3 Zrotation Yrotation Xrotation
		JOINT LeftUpLeg
		{
			OFFSET 1.363060 -1.794630 0.839290
			CHANNELS 3 Zrotation Yrotation Xrotation
			JOINT LeftLeg
			{
				OFFSET 2.448110 -6.726130 0.000000
				CHANNELS 3 Zrotation Yrotation Xrotation
				JOINT LeftFoot
				{
					OFFSET 2.562200 -7.039590 0.000000
					CHANNELS 3 Zrotation Yrotation Xrotation
					JOINT LeftToeBase
					{
						OFFSET 0.157640 -0.433110 2.322550
						CHANNELS 3 Zrotation Yrotation Xrotation
						End Site
						{
							OFFSET 0.000000 0.000000 0.000000
						}
					}
				}
			}
		}
	}
	JOINT RHipJoint
	{
		OFFSET 0.000000 0.000000 0.000000
		CHANNELS 3 Zrotation Yrotation Xrotation
		JOINT RightUpLeg
		{
			OFFSET -1.305520 -1.794630 0.839290
			CHANNELS 3 Zrotation Yrotation Xrotation
			JOINT RightLeg
			{
				OFFSET -2.542530 -6.985550 0.000000
				CHANNELS 3 Zrotation Yrotation Xrotation
				JOINT RightFoot
				{
					OFFSET -2.568260 -7.056230 0.000000
					CHANNELS 3 Zrotation Yrotation Xrotation
					JOINT RightToeBase
					{
						OFFSET -0.164730 -0.452590 2.363150
						CHANNELS 3 Zrotation Yrotation Xrotation
						End Site
						{
							OFFSET 0.000000 0.000000 0.000000
						}
					}
				}
			}
		}
	}
	JOINT LowerBack
	{
		OFFSET 0.000000 0.000000 0.000000
		CHANNELS 3 Zrotation Yrotation Xrotation
		JOINT Spine
		{
			OFFSET 0.028270 2.035590 -0.193380
			CHANNELS 3 Zrotation Yrotation Xrotation
			JOINT Spine1
			{
				OFFSET 0.056720 2.048850 -0.042750
				CHANNELS 3 Zrotation Yrotation Xrotation
				JOINT Neck
				{
					OFFSET 0.000000 0.000000 0.000000
					CHANNELS 3 Zrotation Yrotation Xrotation
					JOINT Neck1
					{
						OFFSET -0.054170 1.746240 0.172020
						CHANNELS 3 Zrotation Yrotation Xrotation
						JOINT Head
						{
							OFFSET 0.104070 1.761360 -0.123970
							CHANNELS 3 Zrotation Yrotation Xrotation
							End Site
							{
								OFFSET 0.000000 0.000000 0.000000
							}
						}
					}
				}
				JOINT LeftShoulder
				{
					OFFSET 0.000000 0.000000 0.000000
					CHANNELS 3 Zrotation Yrotation Xrotation
					JOINT LeftArm
					{
						OFFSET 3.362410 1.200890 -0.311210
						CHANNELS 3 Zrotation Yrotation Xrotation
						JOINT LeftForeArm
						{
							OFFSET 4.983000 -0.000000 -0.000000
							CHANNELS 3 Zrotation Yrotation Xrotation
							JOINT LeftHand
							{
								OFFSET 3.483560 -0.000000 -0.000000
								CHANNELS 3 Zrotation Yrotation Xrotation
								JOINT LeftFingerBase
								{
									OFFSET 0.000000 0.000000 0.000000
									CHANNELS 3 Zrotation Yrotation Xrotation
									JOINT LeftHandIndex1
									{
										OFFSET 0.715260 -0.000000 -0.000000
										CHANNELS 3 Zrotation Yrotation Xrotation
										End Site
										{
											OFFSET 0.000000 0.000000 0.000000
										}
									}
								}
								JOINT LThumb
								{
									OFFSET 0.000000 0.000000 0.000000
									CHANNELS 3 Zrotation Yrotation Xrotation
									End Site
									{
										OFFSET 0.000000 0.000000 0.000000
									}
								}
							}
						}
					}
				}
				JOINT RightShoulder
				{
					OFFSET 0.000000 0.000000 0.000000
					CHANNELS 3 Zrotation Yrotation Xrotation
					JOINT RightArm
					{
						OFFSET -3.136600 1.374050 -0.404650
						CHANNELS 3 Zrotation Yrotation Xrotation
						JOINT RightForeArm
						{
							OFFSET -5.241900 -0.000000 -0.000000
							CHANNELS 3 Zrotation Yrotation Xrotation
							JOINT RightHand
							{
								OFFSET -3.444170 -0.000000 -0.000000
								CHANNELS 3 Zrotation Yrotation Xrotation
								JOINT RightFingerBase
								{
									OFFSET 0.000000 0.000000 0.000000
									CHANNELS 3 Zrotation Yrotation Xrotation
									JOINT RightHandIndex1
									{
										OFFSET -0.622530 -0.000000 -0.000000
										CHANNELS 3 Zrotation Yrotation Xrotation
										End Site
										{
											OFFSET 0.000000 0.000000 0.000000
										}
									}
								}
								JOINT RThumb
								{
									OFFSET 0.000000 0.000000 0.000000
									CHANNELS 3 Zrotation Yrotation Xrotation
									End Site
									{
										OFFSET 0.000000 0.000000 0.000000
									}
								}
							}
						}
					}
				}
			}
		}
	}
}
MOTION
Frames: 8
Frame Time: 0.008333
1.512158 17.152374 0.021720 5.065200 -14.340049 -1.566769 2.300523 4.593903 2.127614 -30.905681 0.130181 -3.916907 1.262185 6.607553 24.866048 0.927854 -0.943440 -13.017957 0.081600 -1.842300 -5.070200 -3.234264 -4.868509 1.480476 10.713340 18.107691 -7.233165 -3.612954 -10.302189 33.934420 -1.440025 3.203215 -17.534384 -1.344600 7.341500 -20.731000 1.437319 -3.926247 -1.362942 21.181206 -2.968671 -7.730754 3.406885 -1.563702 -5.239786 -11.420165 -4.555851 -22.953309 -6.783423 -3.370694 7.676156 -0.805000 -3.022200 8.300100 -6.976699 -8.347159 -0.835297 39.155244 -48.814897 -79.319350 10.757756 -12.552676 -0.403365 0.580355 5.017818 49.902308 -28.070834 23.072735 -8.754400 -7.125000 0.000000 0.000000 -46.626000 44.261900 1.112900 5.899113 8.684461 4.115393 46.813913 29.652266 49.933987 -128.632686 46.819190 -93.883607 0.210498 2.198652 -13.341653 1.917984 17.929825 0.326800 7.125000 0.000000 0.000000 19.169500 -14.687300 14.534300 
1.558862 17.128614 0.019987 5.864221 -15.557829 -1.572968 2.283772 4.557395 2.100295 -31.873140 1.005613 -4.568929 1.315235 6.654773 25.049195 0.987970 -1.167632 -13.201933 0.049000 -1.428200 -3.927900 -3.269649 -4.829762 1.529326 9.532444 19.045761 -8.279392 -3.779008 -10.600800 34.732435 -1.519009 3.855027 -17.623807 -1.379100 7.431100 -20.999000 1.654166 -4.350135 -1.172613 21.565235 -3.479478 -7.549268 3.348223 -1.806453 -5.398922 -10.522503 -3.778245 -23.298594 -7.525878 -2.514063 6.847792 -1.109300 -2.595800 7.963500 -6.975443 -8.294931 -0.918018 37.411243 -48.102103 -82.025571 10.792632 -12.504705 -0.412817 1.040995 4.971765 53.143133 -26.961751 24.235628 -8.774000 -7.125000 0.000000 0.000000 -46.627500 45.212200 -0.317000 5.960665 8.697592 4.227118 48.026159 29.407420 50.213650 -129.819592 46.355172 -95.001748 0.218286 2.244533 -13.562420 1.950351 17.916017 0.327200 7.125000 0.000000 0.000000 19.177800 -14.737900 14.519300 
1.601079 17.103019 0.017131 6.646843 -16.748136 -1.578680 2.264257 4.517061 2.072881 -32.818341 1.770202 -5.271056 1.391536 6.754547 25.377638 1.061248 -1.380328 -13.521231 0.025500 -1.030200 -2.831900 -3.311012 -4.796139 1.572171 8.405407 20.015764 -9.281256 -3.920202 -10.859842 35.420722 -1.567451 4.265337 -17.704136 -1.482100 7.691800 -21.781800 1.933160 -4.709645 -0.954450 21.781534 -3.919356 -7.391871 3.203235 -2.020164 -5.581491 -9.583955 -3.068475 -23.556784 -8.123210 -1.790057 5.916732 -1.369000 -2.204700 7.596200 -6.988557 -8.231144 -0.972872 35.814393 -47.338009 -84.880532 10.946178 -12.760969 -0.452306 1.455933 4.834526 56.523094 -25.634940 24.831309 -8.481000 -7.125000 0.000000 0.000000 -46.126000 45.798000 -1.164900 6.043112 8.713408 4.345750 49.245200 28.911714 50.258195 -131.192123 45.814383 -96.235835 0.222554 2.297124 -13.400331 1.836419 17.946257 0.292900 7.125000 0.000000 0.000000 19.100000 -14.755800 14.445100 
1.638095 17.081094 0.017641 6.758934 -18.180043 -1.538127 2.246473 4.506543 2.076508 -33.039412 2.653835 -6.034024 1.465557 6.886333 25.765883 1.107574 -1.408728 -13.871500 0.020900 -0.933600 -2.566200 -3.346528 -4.790922 1.628046 8.116588 21.255654 -10.020320 -4.068873 -11.056427 36.078921 -1.619895 4.668895 -17.800349 -1.456100 7.627000 -21.586900 2.746433 -4.963326 -0.676063 22.218118 -4.240524 -6.947242 2.898300 -2.169795 -5.794240 -8.950604 -2.550885 -23.787055 -8.361281 -1.262944 4.866181 -1.476600 -1.880700 7.209900 -6.983640 -8.143507 -0.999860 34.157542 -46.511315 -87.858358 11.301389 -13.467146 -0.532908 1.766887 4.693116 60.189756 -24.884327 24.831468 -8.191400 -7.125000 0.000000 0.000000 -45.615000 45.917400 -1.314500 6.086262 8.747408 4.442780 50.459246 28.146830 50.243612 -132.537634 45.273045 -97.392439 0.220455 2.379712 -12.784676 1.486855 18.318759 0.203000 7.125000 0.000000 0.000000 18.855600 -14.479100 14.355900 
1.669095 17.064269 0.023250 6.500500 -19.776951 -1.491181 2.230888 4.517204 2.101445 -32.868405 3.585869 -6.814133 1.541614 7.046682 26.222408 1.120712 -1.215951 -14.271930 0.035400 -1.214000 -3.337900 -3.380342 -4.803592 1.691271 8.321277 22.669290 -10.560336 -4.226808 -11.216385 36.736894 -1.662079 5.015835 -17.852118 -1.438900 7.583800 -21.457000 3.790808 -5.165307 -0.424321 22.766056 -4.523729 -6.269968 2.527187 -2.284385 -5.980038 -8.368583 -2.090346 -23.789878 -8.571109 -0.851430 3.634901 -1.571100 -1.599200 6.734700 -6.962185 -8.053253 -1.011691 32.445655 -45.613863 -90.887486 11.765458 -14.425586 -0.640041 1.998283 4.568472 64.064153 -24.631254 24.439878 -7.958200 -7.125000 0.000000 0.000000 -45.187200 45.718900 -1.016800 6.102979 8.780900 4.507636 51.608504 27.203394 50.151091 -133.868102 44.718761 -98.502557 0.230678 2.452727 -12.159468 1.275980 18.639513 0.146400 7.125000 0.000000 0.000000 18.699500 -14.242800 14.322600 
1.695404 17.038368 0.029062 6.809011 -21.229545 -1.485881 2.214926 4.502156 2.099624 -33.301736 4.265821 -7.575300 1.625743 7.203210 26.682490 1.167225 -1.155169 -14.761886 0.029800 -1.114900 -3.064900 -3.416351 -4.795364 1.736462 7.817705 23.901067 -11.358736 -4.387387 -11.418487 37.424510 -1.712996 5.454140 -17.927588 -1.519100 7.783000 -22.056800 4.240139 -5.366534 -0.284557 23.150581 -4.790167 -5.867036 2.389366 -2.393859 -6.085030 -7.814750 -1.669532 -23.423166 -8.950861 -0.553355 2.278730 -1.714700 -1.375600 6.168400 -6.943742 -7.975760 -1.006919 30.639698 -44.759791 -93.923489 12.211251 -15.365848 -0.744903 2.176269 4.477264 68.025810 -24.810418 23.825971 -7.808600 -7.125000 0.000000 0.000000 -44.910200 45.320600 -0.450700 6.129093 8.784412 4.556872 52.636959 25.996302 49.939060 -135.196615 44.148976 -99.580404 0.237492 2.494702 -11.907656 1.240334 18.657901 0.134700 7.125000 0.000000 0.000000 18.675300 -14.264800 14.292500 
1.725588 17.005838 0.031306 7.572761 -22.571644 -1.520958 2.198230 4.469038 2.079789 -34.234314 4.820013 -8.401105 1.704048 7.351229 27.123411 1.183972 -0.931124 -15.267320 0.037900 -1.256700 -3.455400 -3.455987 -4.772113 1.776224 6.699650 24.900492 -12.481317 -4.555019 -11.657361 38.144679 -1.781322 6.075222 -18.022877 -1.555800 7.872100 -22.326200 4.356439 -5.536276 -0.244951 23.303621 -5.028121 -5.589106 2.297813 -2.491554 -6.125235 -7.219347 -1.319465 -23.063072 -9.364412 -0.360701 0.947533 -1.883200 -1.204600 5.624100 -6.945480 -7.910359 -1.010717 29.131054 -43.940220 -97.218113 12.550811 -16.145253 -0.829347 2.288904 4.372768 72.104481 -25.025471 22.686082 -7.495500 -7.125000 0.000000 0.000000 -44.354100 44.553500 0.619700 6.184472 8.780576 4.600270 53.585710 24.608936 49.598786 -136.521066 43.563240 -100.612981 0.239900 2.551086 -11.825501 1.200036 18.818344 0.121000 7.125000 0.000000 0.000000 18.633900 -14.164100 14.299400 
1.755568 16.977490 0.035079 8.273473 -23.734392 -1.653630 2.189411 4.444915 2.065788 -35.104135 5.237368 -9.006979 1.763734 7.475032 27.501927 1.137333 -0.428245 -15.685229 0.061900 -1.606000 -4.417900 -3.494263 -4.754755 1.808851 5.715627 25.724812 -13.480431 -4.730601 -11.896502 38.902124 -1.841534 6.544299 -18.188652 -1.562400 7.888000 -22.374300 4.436339 -5.695124 -0.069270 23.460944 -5.240902 -5.332531 2.285564 -2.573839 -6.231078 -6.978494 -1.110592 -22.912150 -9.433579 -0.213697 -0.102222 -1.901100 -1.063100 5.226100 -6.941591 -7.839104 -1.027619 27.856270 -43.319939 -100.806171 12.759190 -16.748979 -0.892250 2.423389 4.238052 75.976538 -24.972688 21.826856 -7.190000 -7.125000 0.000000 0.000000 -43.818100 44.007200 1.358000 6.229421 8.784017 4.631736 54.298814 23.110612 49.100753 -137.681851 43.035873 -101.470509 0.215895 2.622217 -11.823718 0.920135 19.138744 0.045000 7.125000 0.000000 0.000000 18.440800 -13.923200 14.233700 
